<svg width="81" height="77" viewBox="0 0 81 77" fill="none" xmlns="http://www.w3.org/2000/svg">
<path d="M72.62 27.03C65.358 27.03 62.389 21.8945 65.9999 15.5954C68.0863 11.9443 66.8425 7.29022 63.1914 5.2039L56.2504 1.23186C53.0808 -0.653849 48.9884 0.469555 47.1027 3.63916L46.6614 4.40147C43.0504 10.7005 37.1124 10.7005 33.4614 4.40147L33.02 3.63916C31.2146 0.469555 27.1222 -0.653849 23.9526 1.23186L17.0115 5.2039C13.3605 7.29022 12.1167 11.9844 14.203 15.6355C17.8541 21.8945 14.8851 27.03 7.62309 27.03C3.45045 27.03 0 30.4403 0 34.6531V41.7145C0 45.8871 3.41033 49.3376 7.62309 49.3376C14.8851 49.3376 17.8541 54.4731 14.203 60.7722C12.1167 64.4233 13.3605 69.0774 17.0115 71.1637L23.9526 75.1357C27.1222 77.0215 31.2146 75.8981 33.1003 72.7285L33.5416 71.9661C37.1525 65.6671 43.0905 65.6671 46.7416 71.9661L47.1829 72.7285C49.0686 75.8981 53.161 77.0215 56.3306 75.1357L63.2717 71.1637C66.9227 69.0774 68.1665 64.3832 66.0802 60.7722C62.4291 54.4731 65.3981 49.3376 72.6601 49.3376C76.8328 49.3376 80.2832 45.9273 80.2832 41.7145V34.6531C80.2431 30.4805 76.8328 27.03 72.62 27.03ZM40.1215 51.2233C32.9398 51.2233 27.082 45.3656 27.082 38.1838C27.082 31.002 32.9398 25.1443 40.1215 25.1443C47.3033 25.1443 53.161 31.002 53.161 38.1838C53.161 45.3656 47.3033 51.2233 40.1215 51.2233Z" fill="white"/>
</svg>
