<svg width="81" height="69" viewBox="0 0 81 69" fill="none" xmlns="http://www.w3.org/2000/svg">
<path d="M20.0708 0C14.5513 0 9.63398 2.30814 5.92089 5.92089C2.30814 9.53363 0 14.451 0 20.0708C0 25.5903 2.30814 30.5076 5.92089 34.2207L40.1416 68.4414L74.3623 34.2207C77.9751 30.608 80.2832 25.6906 80.2832 20.0708C80.2832 14.5513 77.9751 9.63399 74.3623 5.92089C70.7496 2.30814 65.8322 0 60.2124 0C54.6929 0 49.7756 2.30814 46.0625 5.92089C42.4497 9.53363 40.1416 14.451 40.1416 20.0708C40.1416 14.5513 37.8335 9.63399 34.2207 5.92089C30.608 2.30814 25.6906 0 20.0708 0Z" fill="white"/>
</svg>
