<svg width="81" height="82" viewBox="0 0 81 82" fill="none" xmlns="http://www.w3.org/2000/svg">
<g id="&#240;&#159;&#166;&#134; icon &#34;emoji happy&#34;">
<g id="Group">
<path id="Vector" d="M51.3439 81.2273H28.9393C8.66312 81.2273 0 72.5642 0 52.288V29.8834C0 9.60721 8.66312 0.944092 28.9393 0.944092H51.3439C71.6201 0.944092 80.2832 9.60721 80.2832 29.8834V52.288C80.2832 72.5642 71.6201 81.2273 51.3439 81.2273ZM28.9393 6.54525C11.7251 6.54525 5.60115 12.6692 5.60115 29.8834V52.288C5.60115 69.5022 11.7251 75.6261 28.9393 75.6261H51.3439C68.5581 75.6261 74.682 69.5022 74.682 52.288V29.8834C74.682 12.6692 68.5581 6.54525 51.3439 6.54525H28.9393Z" fill="white"/>
<path id="Vector_2" d="M53.2103 35.4846C48.58 35.4846 44.8086 31.7132 44.8086 27.0829C44.8086 22.4526 48.58 18.6812 53.2103 18.6812C57.8406 18.6812 61.6121 22.4526 61.6121 27.0829C61.6121 31.7132 57.8406 35.4846 53.2103 35.4846ZM53.2103 24.2823C51.6793 24.2823 50.4097 25.5519 50.4097 27.0829C50.4097 28.6139 51.6793 29.8835 53.2103 29.8835C54.7413 29.8835 56.0109 28.6139 56.0109 27.0829C56.0109 25.5519 54.7413 24.2823 53.2103 24.2823Z" fill="white"/>
<path id="Vector_3" d="M27.0717 35.4846C22.4414 35.4846 18.6699 31.7132 18.6699 27.0829C18.6699 22.4526 22.4414 18.6812 27.0717 18.6812C31.7019 18.6812 35.4734 22.4526 35.4734 27.0829C35.4734 31.7132 31.7019 35.4846 27.0717 35.4846ZM27.0717 24.2823C25.5407 24.2823 24.2711 25.5519 24.2711 27.0829C24.2711 28.6139 25.5407 29.8835 27.0717 29.8835C28.6026 29.8835 29.8722 28.6139 29.8722 27.0829C29.8722 25.5519 28.6026 24.2823 27.0717 24.2823Z" fill="white"/>
<path id="Vector_4" d="M40.1411 68.9052C29.3123 68.9052 20.5371 60.0927 20.5371 49.3012C20.5371 45.9031 23.3003 43.1399 26.6984 43.1399H53.5839C56.982 43.1399 59.7452 45.9031 59.7452 49.3012C59.7452 60.0927 50.97 68.9052 40.1411 68.9052ZM26.6984 48.741C26.3996 48.741 26.1383 49.0024 26.1383 49.3012C26.1383 57.0308 32.4116 63.304 40.1411 63.304C47.8707 63.304 54.144 57.0308 54.144 49.3012C54.144 49.0024 53.8827 48.741 53.5839 48.741H26.6984Z" fill="white"/>
</g>
</g>
</svg>
